<svg width="1200" height="1200" viewBox="0 0 1200 1200" fill="none" xmlns="http://www.w3.org/2000/svg">
<path d="M1072.71 819.866C1051.57 766.412 1029.45 712.184 1006.89 659.333L993.768 630.821C926.569 635.403 875.08 619.786 812.025 603.331C770.789 595.185 721.916 574.313 685.272 605.892C649.514 642.016 663.208 705.344 686.433 744.327C698.447 764.487 712.009 779.678 726.997 797.211L780.563 858.902C799.43 880.722 816.555 903.987 831.767 928.484C868.034 987.304 892.114 1063.17 892.022 1132.39L1200 1132.38C1160.11 1027.71 1113.93 924.167 1072.71 819.866Z" fill="black"/>
<path d="M764.598 68L434.302 68.0112L9.43848 1106.07L10.6643 1106.28C12.9084 1101.07 20.7616 1089.5 24.4739 1084.92C91.5094 1002.18 209.641 956.21 310.53 932.375C336.251 927.08 362.941 925.013 389.116 922.783C427.226 922.743 462.617 887.402 457.16 846.99C446.764 770.098 415.211 691.531 405.813 613.229C396.548 535.994 409.011 435.245 456.692 371.529C489.966 327.056 553.347 292.818 608.267 286.064C683.439 277.604 761.024 308.338 796.914 377.305C802.545 388.274 804.443 399.411 811.311 411.319C827.805 439.914 835.951 447.042 835.951 447.042C897.041 498.459 932.418 526.955 953.041 534.604L764.598 68Z" fill="black"/>
<path d="M676.373 388.101C691.004 386.602 704.077 397.291 705.513 411.937C706.938 426.582 696.197 439.601 681.545 440.972C666.985 442.333 654.065 431.669 652.639 417.114C651.214 402.559 661.823 389.591 676.373 388.101Z" fill="black"/>
<path d="M809.644 591.23C770.774 581.321 753.364 579.318 753.364 579.318C719.766 578.953 726.561 562.735 767.69 526.017C777.678 497.106 791.634 431.072 829.459 464.068C928.425 539.476 918.205 532.641 981.704 555.838C999.878 563.446 1078.72 593.384 1026.26 615.318C1020.52 617.719 1010.95 619.874 1004.69 620.591C938.895 628.128 872.517 608.37 809.644 591.23Z" fill="black"/>
</svg>
